# xmcd
#
# Track frame offsets:
#	150
#	12063
#	21112
#	29993
#	40460
#	50553
#	63689
#	73469
#	85255
#	94471
#
# Disc length: 1419 seconds
#
# Revision: 0
# Processed by: cddbd v1.5.2PL0 Copyright (c) Steve Scherf et al.
# Submitted via: EasyCDDAExtractor 12.0.7.1
#
DISCID=9505890a
DTITLE=Waylon Jennings - Folk Country
DYEAR=1966
DGENRE=Country
TTITLE0=Another Bridge To Burn
TTITLE1=Stop The World
TTITLE2=Cindy Of New Orleans
TTITLE3=Look Into My Teardrops
TTITLE4=Down Came The World
TTITLE5=I Donÿt Mind
TTITLE6=Just For You
TTITLE7=Now Everybody Knows
TTITLE8=Thatÿs The Chance Iÿll Have To Take
TTITLE9=What Makes A Man Wander
EXTD=
EXTT0=
EXTT1=
EXTT2=
EXTT3=
EXTT4=
EXTT5=
EXTT6=
EXTT7=
EXTT8=
EXTT9=
PLAYORDER=
